# xmcd
#
# Track frame offsets:
#	150
#	16570
#	34741
#	51413
#	69052
#	84738
#	101856
#	118627
#	135430
#	149629
#	168682
#	185495
#	203798
#	221261
#	242661
#
# Disc length: 3484 seconds
#
# Revision: 0
# Processed by: cddbd v1.5.2PL0 Copyright (c) Steve Scherf et al.
# Submitted via: audiograbber 1.83.01
#
DISCID=d30d9a0f
DTITLE=Chartbuster Karaoke - Essential 4 Disk 27
DYEAR=1900
DGENRE=Karaoke
TTITLE0=Toby Keith and Willie Nelson - Beer For My Horses
TTITLE1=Travis Tritt - Strong Enough to Be Your Man
TTITLE2=Amy Dalley - Love's Got An Attitude
TTITLE3=Brad Paisley - Celebrity
TTITLE4=Brian McComas - 99.9% Sure
TTITLE5=Deana Carter - I'm Just A Girl
TTITLE6=Trick Pony - Just What I Do
TTITLE7=Vince Gill - Next Big Thing
TTITLE8=Jamie O'Neal - Every Little Thing
TTITLE9=Brooks and Dunn - Red Dirt Road
TTITLE10=Trick Pony - A Boy Like You
TTITLE11=Buddy Jewell - Help Pour Out The Rain (Lacey's Song)
TTITLE12=Wynonna Judd - What The World Needs
TTITLE13=Mark Wills - When You Think Of Me
TTITLE14=Clint Daniels - The Letter
EXTD=
EXTT0=
EXTT1=
EXTT2=
EXTT3=
EXTT4=
EXTT5=
EXTT6=
EXTT7=
EXTT8=
EXTT9=
EXTT10=
EXTT11=
EXTT12=
EXTT13=
EXTT14=
PLAYORDER=
